<svg xmlns="http://www.w3.org/2000/svg" width="625.8" height="400.78" xmlns:v="https://vecta.io/nano"><linearGradient  gradientUnits="userSpaceOnUse" x1="0" y1="1000" x2="2000" y2="1000"><stop offset="0" stop-color="#fff"/><stop offset="1" stop-color="#c8c8c8"/></linearGradient><g transform="translate(-687.1 -680.59)"><linearGradient id="B" gradientUnits="userSpaceOnUse" x1="847.641" y1="616.088" x2="1366.759" y2="1135.206"><stop offset="0" stop-color="#f4901e"/><stop offset=".506" stop-color="#ea1e79"/><stop offset="1" stop-color="#662d8e"/></linearGradient><path d="M1126.16 1062.39L988.37 924.6l35.55-35.72 5.74 5.65 5.74-5.57 5.52 5.7-5.53 5.7-24.24 24.24 114.99 114.99 144.97-145.01-83.81-83.82c-6.29-6.29-6.29-16.49 0-22.78h0l106.6 106.6z" fill="url(#B)"/><linearGradient id="C" gradientUnits="userSpaceOnUse" x1="721.259" y1="742.469" x2="1240.377" y2="1261.587"><stop offset="0" stop-color="#f4901e"/><stop offset=".506" stop-color="#ea1e79"/><stop offset="1" stop-color="#662d8e"/></linearGradient><path d="M873.38 1039.6L728.41 894.58l144.97-144.97 93.97 93.95c6.29-6.3 6.29-16.5 0-22.79l-93.97-93.94-167.76 167.75 167.76 167.81 132.08-132.09-11.39-11.39z" fill="url(#C)"/><linearGradient id="D" gradientUnits="userSpaceOnUse" x1="833" y1="630.728" x2="1352.118" y2="1149.846"><stop offset="0" stop-color="#f4901e"/><stop offset=".506" stop-color="#ea1e79"/><stop offset="1" stop-color="#662d8e"/></linearGradient><path d="M1158.08 818.63c-6.29 6.29-6.29 16.5.01 22.79l53.19 53.13-85.12 85.19-85.05-85.05 142.38-142.51 30.8 30.86V680.59h-102.38l30.2 30.26-177.99 178.11-90.72 90.79-85.12-85.19 85.12-85.05 63.99 63.99c6.3-6.29 6.3-16.5 0-22.8l-63.99-63.99-107.92 107.85 107.92 107.98 102.12-102.18 189.37-189.5-14.13-14.13h47.46v47.39l-14.73-14.73-165.17 165.31 107.85 107.85 107.92-107.98z" fill="url(#D)"/><linearGradient id="E" gradientUnits="userSpaceOnUse" x1="799.446" y1="664.282" x2="1318.564" y2="1183.4"><stop offset="0" stop-color="#f4901e"/><stop offset=".506" stop-color="#ea1e79"/><stop offset="1" stop-color="#662d8e"/></linearGradient><path d="M843.01 738.22l30.37-30.38 30.38 30.38-30.38 30.37z" fill="url(#E)"/><linearGradient id="F" gradientUnits="userSpaceOnUse" x1="643.058" y1="820.67" x2="1162.176" y2="1339.788"><stop offset="0" stop-color="#f4901e"/><stop offset=".506" stop-color="#ea1e79"/><stop offset="1" stop-color="#662d8e"/></linearGradient><path d="M843.01 1050.99l30.37-30.37 30.38 30.37-30.38 30.38z" fill="url(#F)"/><linearGradient id="G" gradientUnits="userSpaceOnUse" x1="926.065" y1="537.663" x2="1445.183" y2="1056.781"><stop offset="0" stop-color="#f4901e"/><stop offset=".506" stop-color="#ea1e79"/><stop offset="1" stop-color="#662d8e"/></linearGradient><path d="M1252.15 894.12l30.38-30.37 30.37 30.37-30.37 30.38z" fill="url(#G)"/><linearGradient id="H" gradientUnits="userSpaceOnUse" x1="643.54" y1="820.189" x2="1162.658" y2="1339.307"><stop offset="0" stop-color="#f4901e"/><stop offset=".506" stop-color="#ea1e79"/><stop offset="1" stop-color="#662d8e"/></linearGradient><path d="M687.1 894.12l30.37-30.37 30.38 30.37-30.38 30.38z" fill="url(#H)"/><linearGradient id="I" gradientUnits="userSpaceOnUse" x1="769.677" y1="694.051" x2="1288.795" y2="1213.169"><stop offset="0" stop-color="#f4901e"/><stop offset=".506" stop-color="#ea1e79"/><stop offset="1" stop-color="#662d8e"/></linearGradient><path d="M1096.24 1050.99l30.38-30.37 30.37 30.37-30.37 30.38z" fill="url(#I)"/></g></svg>