<?xml version="1.0" encoding="UTF-8" standalone="no"?>
<!-- Generator: Adobe Illustrator 25.4.1, SVG Export Plug-In . SVG Version: 6.00 Build 0)  -->

<svg
   version="1.1"
   id="Layer_1"
   x="0px"
   y="0px"
   viewBox="0 0 824.03003 579.5"
   xml:space="preserve"
   sodipodi:docname="logowordmark_sin_tag.svg"
   width="824.03003"
   height="579.5"
   inkscape:version="1.3 (0e150ed6c4, 2023-07-21)"
   xmlns:inkscape="http://www.inkscape.org/namespaces/inkscape"
   xmlns:sodipodi="http://sodipodi.sourceforge.net/DTD/sodipodi-0.dtd"
   xmlns="http://www.w3.org/2000/svg"
   xmlns:svg="http://www.w3.org/2000/svg"><defs
   id="defs54" /><sodipodi:namedview
   id="namedview54"
   pagecolor="#444444"
   bordercolor="#000000"
   borderopacity="0.25"
   inkscape:showpageshadow="2"
   inkscape:pageopacity="0.0"
   inkscape:pagecheckerboard="0"
   inkscape:deskcolor="#d1d1d1"
   inkscape:zoom="1.1497556"
   inkscape:cx="380.08078"
   inkscape:cy="423.1334"
   inkscape:window-width="1920"
   inkscape:window-height="1009"
   inkscape:window-x="-8"
   inkscape:window-y="-8"
   inkscape:window-maximized="1"
   inkscape:current-layer="Layer_1" />&#10;<style
   type="text/css"
   id="style1">&#10;	.st0{fill:url(#SVGID_1_);}&#10;	.st1{fill:url(#SVGID_00000046302820010353393070000005672616013192448406_);}&#10;	.st2{fill:url(#SVGID_00000045617896477040518990000014058599898980010422_);}&#10;	.st3{fill:url(#SVGID_00000174603078529608980920000011903224950603387313_);}&#10;	.st4{fill:url(#SVGID_00000032606576860703314300000008803593656942076054_);}&#10;	.st5{fill:url(#SVGID_00000073000988834789874520000009120593602117077411_);}&#10;	.st6{fill:url(#SVGID_00000012430167726021578180000015011908009202055086_);}&#10;	.st7{fill:url(#SVGID_00000154401286756240164370000017398886940670185875_);}&#10;	.st8{fill:url(#SVGID_00000041253466183203365510000001742399209485354399_);}&#10;	.st9{fill:url(#SVGID_00000134208417892902727750000016333654145856937137_);}&#10;	.st10{fill:url(#SVGID_00000044166985752315111350000018080455823917783682_);}&#10;	.st11{fill:url(#SVGID_00000090267740149698550020000016724232791017966742_);}&#10;	.st12{fill:url(#SVGID_00000055685426105333482340000017602742607995178650_);}&#10;	.st13{fill:url(#SVGID_00000053513291395889014380000018294706892448896901_);}&#10;	.st14{fill:#333333;}&#10;	.st15{fill:url(#SVGID_00000005980836508045930750000009856719746596966044_);}&#10;	.st16{fill:url(#SVGID_00000110469284439690839080000010471387011132080034_);}&#10;	.st17{fill:url(#SVGID_00000005979722323026886780000017321622514174694787_);}&#10;	.st18{fill:url(#SVGID_00000003065373264441436320000002170548406011256210_);}&#10;	.st19{fill:url(#SVGID_00000011732075143226286440000012379898768637736867_);}&#10;	.st20{fill:url(#SVGID_00000047040697626468123730000017162283562712138628_);}&#10;	.st21{fill:url(#SVGID_00000149380416540776775890000012746873558398768537_);}&#10;	.st22{fill:url(#SVGID_00000156558432204274001290000002299295007234914231_);}&#10;	.st23{fill:#1DCC78;}&#10;	.st24{fill:url(#SVGID_00000065784885270297768110000002042478344298115214_);}&#10;	.st25{fill:url(#SVGID_00000135690330830715199040000010954310804606718369_);}&#10;	.st26{fill:url(#SVGID_00000159432220059854452330000010420550356044107649_);}&#10;	.st27{fill:url(#SVGID_00000122722400790749377360000008460819955537925002_);}&#10;	.st28{fill:url(#SVGID_00000155124518332567246920000010118973877848908167_);}&#10;	.st29{fill:url(#SVGID_00000075879385664149269520000001008578708980269473_);}&#10;	.st30{fill:url(#SVGID_00000173129742446525135180000005202961580612624816_);}&#10;	.st31{fill:url(#SVGID_00000115476860303124917250000002605803793868295831_);}&#10;	.st32{fill:url(#SVGID_00000010302134829315465830000008256207817666699137_);}&#10;	.st33{fill:url(#SVGID_00000033349360719682734350000002872671390209383357_);}&#10;	.st34{fill:url(#SVGID_00000093152725873129061620000009885417010093085358_);}&#10;	.st35{fill:url(#SVGID_00000131342027567952593600000018067579092810745239_);}&#10;	.st36{fill:url(#SVGID_00000142873238898732082690000001555352251978742926_);}&#10;	.st37{fill:url(#SVGID_00000068672815693688526840000001669538024441934480_);}&#10;	.st38{fill:url(#SVGID_00000035514550049398723680000013872117219098546058_);}&#10;	.st39{fill:url(#SVGID_00000015351853709307547470000005595335704948358314_);}&#10;</style>&#10;<linearGradient
   id="SVGID_1_"
   gradientUnits="userSpaceOnUse"
   x1="0"
   y1="1000"
   x2="2000"
   y2="1000">&#10;	<stop
   offset="0"
   style="stop-color:#FFFFFF"
   id="stop1" />&#10;	<stop
   offset="1"
   style="stop-color:#C8C8C8"
   id="stop2" />&#10;</linearGradient>&#10;&#10;<g
   id="g54"
   transform="translate(-587.99,-680.59)">&#10;	<g
   id="g34">&#10;		<g
   id="g33">&#10;			<g
   id="g32">&#10;				<g
   id="g31">&#10;					<g
   id="g27">&#10;						<g
   id="g12">&#10;							<g
   id="g5">&#10;								&#10;									<linearGradient
   id="SVGID_00000118380275035227682190000013759129682438827148_"
   gradientUnits="userSpaceOnUse"
   x1="847.64069"
   y1="616.08771"
   x2="1366.7585"
   y2="1135.2056">&#10;									<stop
   offset="0"
   style="stop-color:#F4901E"
   id="stop3" />&#10;									<stop
   offset="0.5056"
   style="stop-color:#EA1E79"
   id="stop4" />&#10;									<stop
   offset="1"
   style="stop-color:#662D8E"
   id="stop5" />&#10;								</linearGradient>&#10;								<path
   style="fill:url(#SVGID_00000118380275035227682190000013759129682438827148_)"
   d="M 1126.16,1062.39 988.37,924.6 l 35.55,-35.72 5.74,5.65 5.74,-5.57 5.52,5.7 -5.53,5.7 -24.24,24.24 114.99,114.99 144.97,-145.01 -83.81,-83.82 c -6.29,-6.29 -6.29,-16.49 0,-22.78 v 0 l 106.6,106.6 z"
   id="path5" />&#10;							</g>&#10;							<g
   id="g11">&#10;								&#10;									<linearGradient
   id="SVGID_00000174561908721170127720000016167196676965398701_"
   gradientUnits="userSpaceOnUse"
   x1="721.25928"
   y1="742.46912"
   x2="1240.3772"
   y2="1261.5869">&#10;									<stop
   offset="0"
   style="stop-color:#F4901E"
   id="stop6" />&#10;									<stop
   offset="0.5056"
   style="stop-color:#EA1E79"
   id="stop7" />&#10;									<stop
   offset="1"
   style="stop-color:#662D8E"
   id="stop8" />&#10;								</linearGradient>&#10;								<path
   style="fill:url(#SVGID_00000174561908721170127720000016167196676965398701_)"
   d="M 873.38,1039.6 728.41,894.58 873.38,749.61 l 93.97,93.95 c 6.29,-6.3 6.29,-16.5 0,-22.79 L 873.38,726.83 705.62,894.58 873.38,1062.39 1005.46,930.3 994.07,918.91 Z"
   id="path8" />&#10;								&#10;									<linearGradient
   id="SVGID_00000111180404866912536520000018318506520466684074_"
   gradientUnits="userSpaceOnUse"
   x1="833.00043"
   y1="630.72803"
   x2="1352.1183"
   y2="1149.8458">&#10;									<stop
   offset="0"
   style="stop-color:#F4901E"
   id="stop9" />&#10;									<stop
   offset="0.5056"
   style="stop-color:#EA1E79"
   id="stop10" />&#10;									<stop
   offset="1"
   style="stop-color:#662D8E"
   id="stop11" />&#10;								</linearGradient>&#10;								<path
   style="fill:url(#SVGID_00000111180404866912536520000018318506520466684074_)"
   d="m 1158.08,818.63 c -6.29,6.29 -6.29,16.5 0.01,22.79 l 53.19,53.13 -85.12,85.19 -85.05,-85.05 142.38,-142.51 30.8,30.86 V 680.59 h -102.38 l 30.2,30.26 -177.99,178.11 -90.72,90.79 -85.12,-85.19 85.12,-85.05 63.99,63.99 c 6.3,-6.29 6.3,-16.5 0,-22.8 L 873.4,786.71 765.48,894.56 873.4,1002.54 975.52,900.36 l 189.37,-189.5 -14.13,-14.13 h 47.46 v 47.39 l -14.73,-14.73 -165.17,165.31 107.85,107.85 107.92,-107.98 z"
   id="path11" />&#10;							</g>&#10;						</g>&#10;						<g
   id="g14">&#10;							&#10;								<linearGradient
   id="SVGID_00000025439702209611290290000010662697769916889986_"
   gradientUnits="userSpaceOnUse"
   x1="799.44598"
   y1="664.28229"
   x2="1318.5638"
   y2="1183.4003">&#10;								<stop
   offset="0"
   style="stop-color:#F4901E"
   id="stop12" />&#10;								<stop
   offset="0.5056"
   style="stop-color:#EA1E79"
   id="stop13" />&#10;								<stop
   offset="1"
   style="stop-color:#662D8E"
   id="stop14" />&#10;							</linearGradient>&#10;							<polygon
   style="fill:url(#SVGID_00000025439702209611290290000010662697769916889986_)"
   points="903.76,738.22 873.38,768.59 843.01,738.22 873.38,707.84 "
   id="polygon14" />&#10;						</g>&#10;						<g
   id="g17">&#10;							&#10;								<linearGradient
   id="SVGID_00000064333422129694857340000008582287368252681104_"
   gradientUnits="userSpaceOnUse"
   x1="643.05798"
   y1="820.67029"
   x2="1162.1759"
   y2="1339.7882">&#10;								<stop
   offset="0"
   style="stop-color:#F4901E"
   id="stop15" />&#10;								<stop
   offset="0.5056"
   style="stop-color:#EA1E79"
   id="stop16" />&#10;								<stop
   offset="1"
   style="stop-color:#662D8E"
   id="stop17" />&#10;							</linearGradient>&#10;							<polygon
   style="fill:url(#SVGID_00000064333422129694857340000008582287368252681104_)"
   points="903.76,1050.99 873.38,1081.37 843.01,1050.99 873.38,1020.62 "
   id="polygon17" />&#10;						</g>&#10;						<g
   id="g20">&#10;							&#10;								<linearGradient
   id="SVGID_00000173128078568275548380000002189587548292782765_"
   gradientUnits="userSpaceOnUse"
   x1="926.06519"
   y1="537.66309"
   x2="1445.1831"
   y2="1056.781">&#10;								<stop
   offset="0"
   style="stop-color:#F4901E"
   id="stop18" />&#10;								<stop
   offset="0.5056"
   style="stop-color:#EA1E79"
   id="stop19" />&#10;								<stop
   offset="1"
   style="stop-color:#662D8E"
   id="stop20" />&#10;							</linearGradient>&#10;							<polygon
   style="fill:url(#SVGID_00000173128078568275548380000002189587548292782765_)"
   points="1312.9,894.12 1282.53,924.5 1252.15,894.12 1282.53,863.75 "
   id="polygon20" />&#10;						</g>&#10;						<g
   id="g23">&#10;							&#10;								<linearGradient
   id="SVGID_00000090295990751796669010000017469411201224780679_"
   gradientUnits="userSpaceOnUse"
   x1="643.53961"
   y1="820.18878"
   x2="1162.6575"
   y2="1339.3066">&#10;								<stop
   offset="0"
   style="stop-color:#F4901E"
   id="stop21" />&#10;								<stop
   offset="0.5056"
   style="stop-color:#EA1E79"
   id="stop22" />&#10;								<stop
   offset="1"
   style="stop-color:#662D8E"
   id="stop23" />&#10;							</linearGradient>&#10;							<polygon
   style="fill:url(#SVGID_00000090295990751796669010000017469411201224780679_)"
   points="747.85,894.12 717.47,924.5 687.1,894.12 717.47,863.75 "
   id="polygon23" />&#10;						</g>&#10;						<g
   id="g26">&#10;							&#10;								<linearGradient
   id="SVGID_00000121263793686277764520000018069285238649370046_"
   gradientUnits="userSpaceOnUse"
   x1="769.67731"
   y1="694.05109"
   x2="1288.7952"
   y2="1213.1689">&#10;								<stop
   offset="0"
   style="stop-color:#F4901E"
   id="stop24" />&#10;								<stop
   offset="0.5056"
   style="stop-color:#EA1E79"
   id="stop25" />&#10;								<stop
   offset="1"
   style="stop-color:#662D8E"
   id="stop26" />&#10;							</linearGradient>&#10;							<polygon
   style="fill:url(#SVGID_00000121263793686277764520000018069285238649370046_)"
   points="1156.99,1050.99 1126.62,1081.37 1096.24,1050.99 1126.62,1020.62 "
   id="polygon26" />&#10;						</g>&#10;					</g>&#10;					<g
   id="g30"
   style="fill:#eaeaea;fill-opacity:1">&#10;						<path
   class="st14"
   d="m 701.32,1260.08 v -59.33 c 0,-4.81 -0.41,-8.85 -1.21,-12.01 -0.88,-3.42 -2.44,-6.18 -4.64,-8.22 -2.17,-2.01 -5.12,-3.43 -8.79,-4.21 -3.39,-0.71 -7.67,-1.08 -12.73,-1.08 h -33.2 c -4.93,0 -9.14,0.37 -12.52,1.08 -3.64,0.78 -6.63,2.18 -8.86,4.19 -2.29,2.04 -3.9,4.81 -4.77,8.23 -0.8,3.14 -1.21,7.18 -1.21,12.01 v 59.33 h -25.4 v -60.35 c 0,-8.62 0.83,-15.97 2.47,-21.85 1.56,-5.65 4.25,-10.24 7.97,-13.66 3.76,-3.45 8.9,-6.01 15.29,-7.6 6.58,-1.65 14.99,-2.48 25,-2.48 h 37.09 c 10.13,0 18.61,0.83 25.2,2.48 6.37,1.6 11.52,4.15 15.29,7.6 3.71,3.41 6.39,8 7.96,13.66 1.65,5.9 2.47,13.25 2.47,21.85 v 60.35 h -25.41 z"
   id="path27"
   style="fill:#eaeaea;fill-opacity:1" />&#10;						<path
   class="st14"
   d="m 829.5,1260.08 c -16.89,0 -29,-3.16 -36,-9.39 -6.91,-6.15 -10.41,-16.33 -10.41,-30.26 v -25.62 c 0,-7.79 0.76,-14.42 2.25,-19.69 1.42,-5.01 3.91,-9.07 7.4,-12.08 3.57,-3.05 8.41,-5.32 14.39,-6.71 6.2,-1.45 14.21,-2.18 23.81,-2.18 h 53.69 c 7.65,0 14.06,0.72 19.07,2.15 4.87,1.4 8.75,3.32 11.53,5.72 2.74,2.38 4.61,5.16 5.7,8.5 1.13,3.48 1.71,7.31 1.71,11.39 v 33.91 H 808.49 v 7.68 c 0,3.69 0.3,6.6 0.91,8.86 0.69,2.58 1.98,4.66 3.84,6.15 1.76,1.43 4.09,2.4 6.91,2.89 2.51,0.43 5.62,0.65 9.35,0.65 h 93.14 v 18.03 z m 1.84,-87.5 c -3.95,0 -7.28,0.19 -9.96,0.54 -3.06,0.41 -5.58,1.38 -7.5,2.88 -2,1.56 -3.43,3.79 -4.26,6.62 -0.76,2.58 -1.13,5.9 -1.13,10.15 v 8.5 h 88.74 v -16.91 c 0,-4.59 -1.32,-7.79 -3.91,-9.51 -2.29,-1.53 -5.94,-2.28 -11.16,-2.28 h -50.82 z"
   id="path28"
   style="fill:#eaeaea;fill-opacity:1" />&#10;						<path
   class="st14"
   d="m 1028.28,1260.08 c -10,0 -18.41,-0.83 -25,-2.48 -6.38,-1.6 -11.52,-4.15 -15.28,-7.6 -3.72,-3.42 -6.41,-7.98 -7.98,-13.57 -1.63,-5.81 -2.46,-13.13 -2.46,-21.74 v -14.96 c 0,-8.62 0.83,-15.97 2.47,-21.85 1.56,-5.65 4.25,-10.24 7.97,-13.66 3.76,-3.45 8.9,-6.01 15.28,-7.6 6.59,-1.65 15,-2.48 25,-2.48 h 37.09 c 10.13,0 18.62,0.83 25.2,2.48 6.37,1.6 11.51,4.18 15.27,7.69 3.72,3.48 6.41,8.12 7.98,13.77 1.64,5.89 2.47,13.24 2.47,21.86 v 14.75 c 0,8.62 -0.83,15.93 -2.46,21.74 -1.57,5.59 -4.25,10.15 -7.98,13.57 -3.76,3.45 -8.9,6.01 -15.28,7.6 -6.59,1.65 -15.07,2.48 -25.2,2.48 z m 4.1,-84.84 c -5.59,0 -10.25,0.33 -13.87,0.96 -3.93,0.69 -7.1,2.06 -9.43,4.07 -2.38,2.05 -4.04,4.88 -4.91,8.39 -0.81,3.21 -1.2,7.16 -1.2,12.1 v 13.12 c 0,4.94 0.4,8.87 1.21,12.01 0.87,3.44 2.53,6.22 4.91,8.27 2.3,1.99 5.46,3.39 9.37,4.16 3.62,0.71 8.3,1.07 13.92,1.07 h 28.9 c 5.61,0 10.32,-0.36 14.01,-1.07 3.99,-0.76 7.18,-2.16 9.49,-4.17 2.37,-2.05 4.02,-4.83 4.91,-8.27 0.8,-3.12 1.21,-7.16 1.21,-12.01 v -13.12 c 0,-4.84 -0.41,-8.9 -1.21,-12.1 -0.88,-3.51 -2.53,-6.33 -4.91,-8.39 -2.34,-2.01 -5.54,-3.38 -9.54,-4.07 -3.69,-0.63 -8.38,-0.96 -13.97,-0.96 h -28.89 z"
   id="path29"
   style="fill:#eaeaea;fill-opacity:1" />&#10;						<path
   class="st14"
   d="m 1173.08,1260.08 v -134.64 h 115.27 c 7.7,0 14.36,0.53 19.8,1.59 5.21,1.02 9.45,2.7 12.61,4.99 3.07,2.23 5.36,5.17 6.82,8.74 1.51,3.7 2.27,8.38 2.27,13.89 v 11.48 c 0,7.55 -1.26,12.94 -3.74,16.02 -2.55,3.15 -5.68,5.21 -9.56,6.31 l 0.14,4.97 c 2.2,0.49 4.28,1.26 6.19,2.31 1.74,0.96 3.27,2.38 4.55,4.23 1.31,1.91 2.36,4.48 3.1,7.63 0.77,3.27 1.16,7.45 1.16,12.43 v 12.3 c 0,5.23 -0.73,9.67 -2.16,13.17 -1.4,3.39 -3.58,6.06 -6.66,8.18 -3.17,2.18 -7.43,3.8 -12.67,4.82 -5.41,1.06 -12.07,1.59 -19.8,1.59 h -117.32 z m 26.01,-20.28 h 89.66 c 6.41,0 10.98,-0.9 13.96,-2.75 3.32,-2.07 5.01,-5.8 5.01,-11.09 v -8.6 c 0,-6.58 -1.41,-10.98 -4.29,-13.43 -2.75,-2.35 -7.22,-3.49 -13.65,-3.49 h -90.69 z m 0,-56.76 h 89.87 c 6.16,0 10.4,-1.08 12.95,-3.3 2.66,-2.3 3.96,-6.09 3.96,-11.57 v -8.81 c 0,-5.16 -1.68,-8.82 -5.01,-10.89 -2.97,-1.84 -7.87,-2.74 -14.98,-2.74 h -86.79 z"
   id="path30"
   style="fill:#eaeaea;fill-opacity:1" />&#10;						<rect
   x="1386"
   y="1125.45"
   class="st14"
   width="26.02"
   height="134.64"
   id="rect30"
   style="fill:#eaeaea;fill-opacity:1" />&#10;					</g>&#10;				</g>&#10;			</g>&#10;		</g>&#10;	</g>&#10;	&#10;</g>&#10;</svg>
