<?xml version="1.0" encoding="UTF-8" standalone="no"?>
<svg
   width="824.03"
   height="134.65"
   version="1.1"
   id="svg2"
   sodipodi:docname="wordmark_white.svg"
   inkscape:version="1.3 (0e150ed6c4, 2023-07-21)"
   xmlns:inkscape="http://www.inkscape.org/namespaces/inkscape"
   xmlns:sodipodi="http://sodipodi.sourceforge.net/DTD/sodipodi-0.dtd"
   xmlns="http://www.w3.org/2000/svg"
   xmlns:svg="http://www.w3.org/2000/svg">
  <defs
     id="defs2" />
  <sodipodi:namedview
     id="namedview2"
     pagecolor="#c2c2c2"
     bordercolor="#373737"
     borderopacity="0.24705882"
     inkscape:showpageshadow="2"
     inkscape:pageopacity="0.0"
     inkscape:pagecheckerboard="0"
     inkscape:deskcolor="#d1d1d1"
     inkscape:zoom="1.3761634"
     inkscape:cx="412.01501"
     inkscape:cy="67.215853"
     inkscape:window-width="1920"
     inkscape:window-height="1009"
     inkscape:window-x="-8"
     inkscape:window-y="-8"
     inkscape:window-maximized="1"
     inkscape:current-layer="svg2" />
  <linearGradient
     gradientUnits="userSpaceOnUse"
     x1="0"
     y1="1000"
     x2="2000"
     y2="1000"
     id="linearGradient2">
    <stop
       offset="0"
       stop-color="#fff"
       id="stop1" />
    <stop
       offset="1"
       stop-color="#c8c8c8"
       id="stop2" />
  </linearGradient>
  <path
     d="M113.33 134.64V75.31c0-4.81-.41-8.85-1.21-12.01-.88-3.42-2.44-6.18-4.64-8.22-2.17-2.01-5.12-3.43-8.79-4.21-3.39-.71-7.67-1.08-12.73-1.08h-33.2c-4.93 0-9.14.37-12.52 1.08-3.64.78-6.63 2.18-8.86 4.19-2.29 2.04-3.9 4.81-4.77 8.23-.8 3.14-1.21 7.18-1.21 12.01v59.33H0V74.28c0-8.62.83-15.97 2.47-21.85 1.56-5.65 4.25-10.24 7.97-13.66 3.76-3.45 8.9-6.01 15.29-7.6 6.58-1.65 14.99-2.48 25-2.48h37.09c10.13 0 18.61.83 25.2 2.48 6.37 1.6 11.52 4.15 15.29 7.6 3.71 3.41 6.39 8 7.96 13.66 1.65 5.9 2.47 13.25 2.47 21.85v60.35h-25.41zm128.18 0c-16.89 0-29-3.16-36-9.39-6.91-6.15-10.41-16.33-10.41-30.26V69.37c0-7.79.76-14.42 2.25-19.69 1.42-5.01 3.91-9.07 7.4-12.08 3.57-3.05 8.41-5.32 14.39-6.71 6.2-1.45 14.21-2.18 23.81-2.18h53.69c7.65 0 14.06.72 19.07 2.15 4.87 1.4 8.75 3.32 11.53 5.72 2.74 2.38 4.61 5.16 5.7 8.5 1.13 3.48 1.71 7.31 1.71 11.39v33.91H220.5v7.68c0 3.69.3 6.6.91 8.86.69 2.58 1.98 4.66 3.84 6.15 1.76 1.43 4.09 2.4 6.91 2.89 2.51.43 5.62.65 9.35.65h93.14v18.03zm1.84-87.5c-3.95 0-7.28.19-9.96.54-3.06.41-5.58 1.38-7.5 2.88-2 1.56-3.43 3.79-4.26 6.62-.76 2.58-1.13 5.9-1.13 10.15v8.5h88.74V58.92c0-4.59-1.32-7.79-3.91-9.51-2.29-1.53-5.94-2.28-11.16-2.28h-50.82zm196.94 87.5c-10 0-18.41-.83-25-2.48-6.38-1.6-11.52-4.15-15.28-7.6-3.72-3.42-6.41-7.98-7.98-13.57-1.63-5.81-2.46-13.13-2.46-21.74V74.29c0-8.62.83-15.97 2.47-21.85 1.56-5.65 4.25-10.24 7.97-13.66 3.76-3.45 8.9-6.01 15.28-7.6 6.59-1.65 15-2.48 25-2.48h37.09c10.13 0 18.62.83 25.2 2.48 6.37 1.6 11.51 4.18 15.27 7.69 3.72 3.48 6.41 8.12 7.98 13.77 1.64 5.89 2.47 13.24 2.47 21.86v14.75c0 8.62-.83 15.93-2.46 21.74-1.57 5.59-4.25 10.15-7.98 13.57-3.76 3.45-8.9 6.01-15.28 7.6-6.59 1.65-15.07 2.48-25.2 2.48zm4.1-84.84c-5.59 0-10.25.33-13.87.96-3.93.69-7.1 2.06-9.43 4.07-2.38 2.05-4.04 4.88-4.91 8.39-.81 3.21-1.2 7.16-1.2 12.1v13.12c0 4.94.4 8.87 1.21 12.01.87 3.44 2.53 6.22 4.91 8.27 2.3 1.99 5.46 3.39 9.37 4.16 3.62.71 8.3 1.07 13.92 1.07h28.9c5.61 0 10.32-.36 14.01-1.07 3.99-.76 7.18-2.16 9.49-4.17 2.37-2.05 4.02-4.83 4.91-8.27.8-3.12 1.21-7.16 1.21-12.01V75.31c0-4.84-.41-8.9-1.21-12.1-.88-3.51-2.53-6.33-4.91-8.39-2.34-2.01-5.54-3.38-9.54-4.07-3.69-.63-8.38-.96-13.97-.96h-28.89zm140.7 84.84V0h115.27c7.7 0 14.36.53 19.8 1.59 5.21 1.02 9.45 2.7 12.61 4.99 3.07 2.23 5.36 5.17 6.82 8.74 1.51 3.7 2.27 8.38 2.27 13.89v11.48c0 7.55-1.26 12.94-3.74 16.02-2.55 3.15-5.68 5.21-9.56 6.31l.14 4.97c2.2.49 4.28 1.26 6.19 2.31 1.74.96 3.27 2.38 4.55 4.23 1.31 1.91 2.36 4.48 3.1 7.63.77 3.27 1.16 7.45 1.16 12.43v12.3c0 5.23-.73 9.67-2.16 13.17-1.4 3.39-3.58 6.06-6.66 8.18-3.17 2.18-7.43 3.8-12.67 4.82-5.41 1.06-12.07 1.59-19.8 1.59H585.09zm26.01-20.28h89.66c6.41 0 10.98-.9 13.96-2.75 3.32-2.07 5.01-5.8 5.01-11.09v-8.6c0-6.58-1.41-10.98-4.29-13.43-2.75-2.35-7.22-3.49-13.65-3.49H611.1zm0-56.76h89.87c6.16 0 10.4-1.08 12.95-3.3 2.66-2.3 3.96-6.09 3.96-11.57v-8.81c0-5.16-1.68-8.82-5.01-10.89-2.97-1.84-7.87-2.74-14.98-2.74H611.1zM798.01.01h26.02v134.64h-26.02z"
     fill="#333"
     id="path2"
     style="fill:#ebebeb;fill-opacity:1" />
</svg>
